# Blender v2.90.1 OBJ File: 'dron_new.blend'
# www.blender.org
o batteryholder_íë¸Œ.009
v -0.872383 0.080816 2.699624
v -0.872383 0.080816 -1.075661
v -0.872383 1.088449 -1.075661
v 1.030694 0.080816 2.699624
v 1.030694 0.080816 -1.075661
v 1.030694 1.088449 -1.075661
v -0.872383 0.584632 -1.075661
v 1.030694 0.584632 -1.075661
v -0.872383 0.332724 -1.075661
v 1.030694 0.332724 -1.075661
v 1.030694 0.332724 2.699624
v -0.872383 0.332724 2.699624
v -0.872383 0.080816 0.811981
v 1.030694 0.080816 0.811981
v -0.872383 0.332724 0.811981
v 1.030694 0.332724 0.811981
v 1.030694 0.080816 -0.131840
v -0.872383 0.332724 -0.131840
v -0.872383 0.080816 -0.131840
v 1.030694 0.332724 -0.131840
v -0.872383 1.088449 -0.603751
v 1.030694 0.080816 -0.603751
v -0.872383 0.584632 -0.603751
v -0.872383 0.332724 -0.603751
v -0.872383 0.080816 -0.603751
v 1.030694 1.088449 -0.603751
v 1.030694 0.584632 -0.603751
v 1.030694 0.332724 -0.603751
v -0.872383 0.332724 2.699624
v -0.872383 0.332724 0.811981
v 1.030694 0.332724 2.699624
v 1.030694 0.332724 0.811981
v -0.872383 0.332724 2.699624
v 1.030694 0.332724 2.699624
v -0.872383 0.332724 0.811981
v -0.872383 0.332724 2.699624
v 1.030694 0.332724 0.811981
v 1.030694 0.332724 2.699624
v -0.872383 0.332724 2.699624
v 1.030694 0.332724 2.699624
v -0.872383 0.332724 2.699624
v 1.030694 0.332724 2.699624
v -0.872383 0.332724 2.699624
v 1.030694 0.332724 2.699624
v 1.030694 0.332724 2.699624
v 1.030694 0.332724 2.699624
v 1.030694 0.332724 2.699624
v 1.030694 0.332724 2.699624
v -0.826045 0.329486 0.811981
v -0.826045 0.329486 2.607700
v 0.984356 0.329486 -0.983737
v -0.826045 0.329486 -0.983737
v 0.984356 0.329486 -0.603751
v 0.984356 0.329486 2.607700
v -0.826045 0.329486 -0.131840
v 0.984356 0.329486 0.811981
v 0.984356 0.329486 -0.131840
v -0.826045 0.329486 -0.603751
v -0.872383 0.329486 0.811981
v -0.872383 0.329486 2.699624
v 1.030694 0.329486 -1.075661
v -0.872383 0.329486 -1.075661
v 1.030694 0.329486 -0.603751
v 1.030694 0.329486 2.699624
v -0.872383 0.329486 -0.131840
v 1.030694 0.329486 0.811981
v 1.030694 0.329486 -0.131840
v -0.872383 0.329486 -0.603751
v 0.984356 0.153954 0.811981
v -0.826045 0.153954 0.811981
v 0.984356 0.153954 -0.131840
v -0.826045 0.153954 -0.131840
v 0.984356 0.153954 -0.603751
v -0.826045 0.153954 -0.603751
v -0.826045 0.153954 2.607700
v 0.984356 0.153954 -0.983737
v -0.826045 0.153954 -0.983737
v 0.984356 0.153954 2.607700
v -0.783877 1.041587 -0.644767
v 0.942188 1.041587 -0.644767
v -0.783877 0.584632 -0.644767
v 0.942188 0.584632 -0.644767
v -0.783877 0.379586 -0.644767
v 0.942188 0.379586 -0.644767
v -0.872383 1.088449 -0.644767
v 1.030694 1.088449 -0.644767
v -0.872383 0.584632 -0.644767
v 1.030694 0.584632 -0.644767
v -0.872383 0.332724 -0.644767
v 1.030694 0.332724 -0.644767
vt 0.625000 0.218750
vt 0.500000 0.250000
vt 0.500000 0.218750
vt 0.625000 0.250000
vt 0.500000 0.250000
vt 0.375000 0.187500
vt 0.375000 0.125000
vt 0.375000 0.125000
vt 0.437500 0.250000
vt 0.437500 0.250000
vt 0.437500 0.218750
vt 0.375000 0.250000
vt 0.375000 0.218750
vt 0.375000 0.500000
vt 0.437500 0.625000
vt 0.375000 0.750000
vt 0.375000 0.625000
vt 0.437500 0.750000
vt 0.375000 1.000000
vt 0.437500 0.562500
vt 0.375000 0.562500
vt 0.437500 0.000000
vt 0.375000 0.000000
vt 0.375000 0.250000
vt 0.375000 0.531250
vt 0.375000 0.500000
vt 0.437500 0.531250
vt 0.437500 0.125000
vt 0.437500 0.500000
vt 0.500000 0.500000
vt 0.875000 0.500000
vt 0.625000 0.531250
vt 0.625000 0.500000
vt 0.375000 0.218750
vt 0.500000 0.531250
vt 0.437500 0.187500
vt 0.437500 0.000000
vt 0.437500 0.125000
vt 0.437500 0.000000
vt 0.437500 0.125000
vt 0.437500 0.625000
vt 0.437500 0.750000
vt 0.437500 1.000000
vt 0.437500 0.750000
vt 0.437500 1.000000
vt 0.437500 0.625000
vt 0.437500 0.750000
vt 0.437500 0.750000
vt 0.437500 1.000000
vt 0.437500 0.750000
vt 0.437500 1.000000
vt 0.437500 0.750000
vt 0.437500 1.000000
vt 0.437500 0.750000
vt 0.437500 0.750000
vt 0.437500 0.750000
vt 0.437500 0.750000
vt 0.131087 0.531250
vt 0.131087 0.562500
vt 0.131087 0.562500
vt 0.131087 0.625000
vt 0.131087 0.743913
vt 0.131087 0.743913
vt 0.368913 0.743913
vt 0.368913 0.743913
vt 0.368913 0.625000
vt 0.368913 0.562500
vt 0.368913 0.562500
vt 0.375000 0.562500
vt 0.375000 0.531250
vt 0.375000 0.000000
vt 0.375000 0.625000
vt 0.375000 0.750000
vt 0.375000 0.187500
vt 0.125000 0.625000
vt 0.131087 0.506087
vt 0.368913 0.506087
vt 0.368913 0.531250
vt 0.125000 0.750000
vt 0.125000 0.562500
vt 0.125000 0.531250
vt 0.125000 0.500000
vt 0.368913 0.625000
vt 0.131087 0.625000
vt 0.368913 0.531250
vt 0.131087 0.531250
vt 0.131087 0.506087
vt 0.368913 0.506087
vt 0.613373 0.261627
vt 0.500000 0.488373
vt 0.500000 0.261627
vt 0.449127 0.488373
vt 0.449127 0.261627
vt 0.500000 0.500000
vt 0.625000 0.500000
vt 0.437500 0.500000
vt 0.875000 0.500000
vt 0.613373 0.488373
vt 0.625000 0.250000
vt 0.875000 0.531250
vt 0.375000 1.000000
vn -1.0000 0.0000 0.0000
vn 1.0000 0.0000 0.0000
vn 0.0000 0.0000 -1.0000
vn 0.0000 0.0000 1.0000
vn 0.0000 1.0000 0.0000
vn 0.0000 -1.0000 0.0000
s off
f 21/1/1 7/2/1 23/3/1
f 3/4/2 87/5/2 7/2/2
f 19/6/2 59/7/2 13/8/2
f 7/2/2 89/9/2 9/10/2
f 23/3/1 9/10/1 24/11/1
f 24/11/1 2/12/1 25/13/1
f 9/10/3 5/14/3 2/12/3
f 16/15/2 4/16/2 14/17/2
f 11/18/4 1/19/4 4/16/4
f 20/20/2 14/17/2 17/21/2
f 12/22/1 13/8/1 1/23/1
f 5/14/4 62/24/4 2/12/4
f 22/25/1 61/26/1 5/14/1
f 28/27/2 17/21/2 22/25/2
f 15/28/1 19/6/1 13/8/1
f 10/29/2 22/25/2 5/14/2
f 8/30/2 28/27/2 10/29/2
f 3/31/5 26/32/5 6/33/5
f 2/12/2 68/34/2 25/13/2
f 6/33/2 27/35/2 8/30/2
f 18/36/1 25/13/1 19/6/1
f 15/28/4 36/37/4 35/38/4
f 35/38/4 29/39/4 30/40/4
f 11/18/4 37/41/4 38/42/4
f 12/43/4 34/44/4 33/45/4
f 38/42/4 32/46/4 31/47/4
f 33/45/4 40/48/4 39/49/4
f 39/49/4 42/50/4 41/51/4
f 41/51/4 44/52/4 43/53/4
f 34/44/4 45/54/4 46/55/4
f 38/42/4 47/56/4 48/57/4
f 58/58/1 72/59/1 55/60/1
f 49/61/1 75/62/1 50/63/1
f 50/63/4 78/64/4 54/65/4
f 56/66/2 71/67/2 57/68/2
f 14/17/1 67/69/1 17/21/1
f 17/21/1 63/70/1 22/25/1
f 13/8/2 60/71/2 1/23/2
f 4/16/1 66/72/1 14/17/1
f 1/19/3 64/73/3 4/16/3
f 25/13/2 65/74/2 19/6/2
f 50/63/6 59/75/6 49/61/6
f 52/76/6 61/26/6 51/77/6
f 51/77/6 63/70/6 53/78/6
f 54/65/6 60/79/6 50/63/6
f 49/61/6 65/80/6 55/60/6
f 54/65/6 66/72/6 64/73/6
f 57/68/6 66/72/6 56/66/6
f 55/60/6 68/81/6 58/58/6
f 53/78/6 67/69/6 57/68/6
f 52/76/6 68/81/6 62/82/6
f 69/83/6 75/62/6 70/84/6
f 71/67/6 70/84/6 72/59/6
f 73/85/6 72/59/6 74/86/6
f 77/87/6 73/85/6 74/86/6
f 55/60/1 70/84/1 49/61/1
f 51/77/3 77/87/3 52/76/3
f 57/68/2 73/85/2 53/78/2
f 54/65/2 69/83/2 56/66/2
f 53/78/2 76/88/2 51/77/2
f 52/76/1 74/86/1 58/58/1
f 79/89/3 82/90/3 81/91/3
f 81/91/3 84/92/3 83/93/3
f 10/29/1 88/94/1 8/30/1
f 8/30/1 86/95/1 6/33/1
f 9/10/5 90/96/5 10/29/5
f 6/33/6 85/97/6 3/31/6
f 79/89/3 86/95/3 80/98/3
f 79/89/3 87/5/3 85/99/3
f 80/98/3 88/94/3 82/90/3
f 83/93/3 87/5/3 81/91/3
f 84/92/3 88/94/3 90/96/3
f 84/92/3 89/9/3 83/93/3
f 21/1/1 3/4/1 7/2/1
f 3/4/2 85/99/2 87/5/2
f 19/6/2 65/74/2 59/7/2
f 7/2/2 87/5/2 89/9/2
f 23/3/1 7/2/1 9/10/1
f 24/11/1 9/10/1 2/12/1
f 9/10/3 10/29/3 5/14/3
f 16/15/2 11/18/2 4/16/2
f 11/18/4 12/43/4 1/19/4
f 20/20/2 16/15/2 14/17/2
f 12/22/1 15/28/1 13/8/1
f 5/14/4 61/26/4 62/24/4
f 22/25/1 63/70/1 61/26/1
f 28/27/2 20/20/2 17/21/2
f 15/28/1 18/36/1 19/6/1
f 10/29/2 28/27/2 22/25/2
f 8/30/2 27/35/2 28/27/2
f 3/31/5 21/100/5 26/32/5
f 2/12/2 62/24/2 68/34/2
f 6/33/2 26/32/2 27/35/2
f 18/36/1 24/11/1 25/13/1
f 15/28/4 12/22/4 36/37/4
f 35/38/4 36/37/4 29/39/4
f 11/18/4 16/15/4 37/41/4
f 12/43/4 11/18/4 34/44/4
f 38/42/4 37/41/4 32/46/4
f 33/45/4 34/44/4 40/48/4
f 39/49/4 40/48/4 42/50/4
f 41/51/4 42/50/4 44/52/4
f 34/44/4 11/18/4 45/54/4
f 38/42/4 31/47/4 47/56/4
f 58/58/1 74/86/1 72/59/1
f 49/61/1 70/84/1 75/62/1
f 50/63/4 75/62/4 78/64/4
f 56/66/2 69/83/2 71/67/2
f 14/17/1 66/72/1 67/69/1
f 17/21/1 67/69/1 63/70/1
f 13/8/2 59/7/2 60/71/2
f 4/16/1 64/73/1 66/72/1
f 1/19/3 60/101/3 64/73/3
f 25/13/2 68/34/2 65/74/2
f 50/63/6 60/79/6 59/75/6
f 52/76/6 62/82/6 61/26/6
f 51/77/6 61/26/6 63/70/6
f 54/65/6 64/73/6 60/79/6
f 49/61/6 59/75/6 65/80/6
f 54/65/6 56/66/6 66/72/6
f 57/68/6 67/69/6 66/72/6
f 55/60/6 65/80/6 68/81/6
f 53/78/6 63/70/6 67/69/6
f 52/76/6 58/58/6 68/81/6
f 69/83/6 78/64/6 75/62/6
f 71/67/6 69/83/6 70/84/6
f 73/85/6 71/67/6 72/59/6
f 77/87/6 76/88/6 73/85/6
f 55/60/1 72/59/1 70/84/1
f 51/77/3 76/88/3 77/87/3
f 57/68/2 71/67/2 73/85/2
f 54/65/2 78/64/2 69/83/2
f 53/78/2 73/85/2 76/88/2
f 52/76/1 77/87/1 74/86/1
f 79/89/3 80/98/3 82/90/3
f 81/91/3 82/90/3 84/92/3
f 10/29/1 90/96/1 88/94/1
f 8/30/1 88/94/1 86/95/1
f 9/10/5 89/9/5 90/96/5
f 6/33/6 86/95/6 85/97/6
f 79/89/3 85/99/3 86/95/3
f 79/89/3 81/91/3 87/5/3
f 80/98/3 86/95/3 88/94/3
f 83/93/3 89/9/3 87/5/3
f 84/92/3 82/90/3 88/94/3
f 84/92/3 90/96/3 89/9/3
