# Blender v2.90.1 OBJ File: 'dron_new.blend'
# www.blender.org
o middle_down_íë¸Œ.004
v -0.008988 -0.522980 -0.631821
v -1.844341 0.255913 -0.631821
v -0.066637 -0.522596 -0.631822
v -0.124230 -0.521443 -0.631822
v -0.181710 -0.519523 -0.631822
v -0.239017 -0.516838 -0.631822
v -0.296099 -0.513390 -0.631822
v -0.352898 -0.509184 -0.631822
v -0.409357 -0.504221 -0.631822
v -0.465421 -0.498510 -0.631822
v -0.521035 -0.492053 -0.631822
v -0.576144 -0.484858 -0.631822
v -0.630691 -0.476932 -0.631822
v -0.684626 -0.468283 -0.631822
v -0.737894 -0.458920 -0.631822
v -0.790443 -0.448850 -0.631822
v -0.842219 -0.438086 -0.631822
v -0.893175 -0.426636 -0.631822
v -0.943258 -0.414513 -0.631822
v -0.992419 -0.401728 -0.631822
v -1.040608 -0.388294 -0.631822
v -1.087781 -0.374225 -0.631822
v -1.133889 -0.359533 -0.631822
v -1.178885 -0.344235 -0.631822
v -1.222727 -0.328343 -0.631821
v -1.265373 -0.311876 -0.631821
v -1.306778 -0.294848 -0.631821
v -1.843435 0.231447 -0.631821
v -1.840719 0.207006 -0.631821
v -1.836195 0.182612 -0.631821
v -1.829868 0.158292 -0.631821
v -1.821744 0.134067 -0.631821
v -1.811831 0.109962 -0.631821
v -1.800139 0.086002 -0.631821
v -1.786680 0.062210 -0.631821
v -1.771466 0.038609 -0.631821
v -1.754511 0.015221 -0.631821
v -1.735836 -0.007928 -0.631821
v -1.715456 -0.030817 -0.631821
v -1.693391 -0.053423 -0.631821
v -1.669664 -0.075724 -0.631821
v -1.644299 -0.097697 -0.631821
v -1.617319 -0.119322 -0.631821
v -1.588753 -0.140576 -0.631821
v -1.558627 -0.161439 -0.631821
v -1.526973 -0.181890 -0.631821
v -1.493819 -0.201909 -0.631821
v -1.459200 -0.221476 -0.631821
v -1.423151 -0.240572 -0.631821
v -1.385707 -0.259178 -0.631821
v -1.346902 -0.277276 -0.631821
v 0.084892 -0.522980 -0.631821
v 1.920245 0.255913 -0.631821
v 0.142542 -0.522596 -0.631821
v 0.200136 -0.521443 -0.631821
v 0.257615 -0.519523 -0.631821
v 0.314923 -0.516838 -0.631821
v 0.372005 -0.513390 -0.631821
v 0.428804 -0.509184 -0.631821
v 0.485262 -0.504221 -0.631821
v 0.541326 -0.498510 -0.631821
v 0.596939 -0.492053 -0.631821
v 0.652048 -0.484858 -0.631821
v 0.706595 -0.476932 -0.631821
v 0.760530 -0.468283 -0.631821
v 0.813799 -0.458920 -0.631821
v 0.866348 -0.448850 -0.631821
v 0.918125 -0.438086 -0.631821
v 0.969081 -0.426636 -0.631821
v 1.019164 -0.414513 -0.631821
v 1.068323 -0.401728 -0.631821
v 1.116512 -0.388294 -0.631821
v 1.163686 -0.374224 -0.631821
v 1.209794 -0.359533 -0.631821
v 1.254789 -0.344234 -0.631821
v 1.298633 -0.328343 -0.631821
v 1.341278 -0.311875 -0.631821
v 1.919340 0.231447 -0.631821
v 1.916623 0.207006 -0.631821
v 1.912099 0.182612 -0.631821
v 1.905772 0.158292 -0.631821
v 1.897648 0.134067 -0.631821
v 1.887736 0.109963 -0.631821
v 1.876043 0.086002 -0.631821
v 1.862584 0.062210 -0.631821
v 1.847371 0.038609 -0.631821
v 1.830416 0.015222 -0.631821
v 1.811741 -0.007928 -0.631821
v 1.791360 -0.030817 -0.631821
v 1.769296 -0.053423 -0.631821
v 1.745568 -0.075724 -0.631821
v 1.720203 -0.097697 -0.631821
v 1.693225 -0.119321 -0.631821
v 1.664657 -0.140576 -0.631821
v 1.634531 -0.161439 -0.631821
v 1.602878 -0.181890 -0.631821
v 1.569725 -0.201909 -0.631821
v 1.535105 -0.221476 -0.631821
v 1.423521 -0.278105 -0.631822
v 1.458815 -0.260568 -0.631822
v 1.422806 -0.277276 -0.631821
v 1.382682 -0.294847 -0.631821
v -1.844341 0.255913 2.614111
v -0.008988 -0.522980 2.614111
v -1.843435 0.231447 2.614111
v -1.840719 0.207006 2.614111
v -1.836195 0.182612 2.614111
v -1.829868 0.158292 2.614111
v -1.821744 0.134067 2.614111
v -1.811831 0.109963 2.614111
v -1.800139 0.086002 2.614111
v -1.786680 0.062210 2.614111
v -1.771466 0.038609 2.614111
v -1.754511 0.015221 2.614111
v -1.735836 -0.007928 2.614111
v -1.715456 -0.030817 2.614111
v -1.693391 -0.053423 2.614111
v -1.669664 -0.075724 2.614111
v -1.644299 -0.097697 2.614111
v -1.617319 -0.119322 2.614111
v -1.588753 -0.140576 2.614111
v -1.558627 -0.161439 2.614111
v -1.526973 -0.181890 2.614111
v -1.493819 -0.201909 2.614111
v -1.459200 -0.221476 2.614111
v -1.423151 -0.240572 2.614111
v -1.385707 -0.259178 2.614111
v -1.346902 -0.277276 2.614111
v -1.306778 -0.294848 2.614111
v -1.265373 -0.311876 2.614111
v -1.222727 -0.328343 2.614111
v -1.178885 -0.344235 2.614111
v -1.133889 -0.359533 2.614111
v -1.087781 -0.374225 2.614111
v -1.040608 -0.388294 2.614111
v -0.992419 -0.401728 2.614111
v -0.943258 -0.414513 2.614111
v -0.893175 -0.426636 2.614111
v -0.842219 -0.438086 2.614111
v -0.790443 -0.448850 2.614111
v -0.737894 -0.458920 2.614111
v -0.684626 -0.468283 2.614111
v -0.630691 -0.476932 2.614111
v -0.576144 -0.484858 2.614111
v -0.521035 -0.492053 2.614111
v -0.465421 -0.498510 2.614111
v -0.409357 -0.504221 2.614111
v -0.352898 -0.509184 2.614111
v -0.296099 -0.513390 2.614111
v -0.239017 -0.516838 2.614111
v -0.181710 -0.519523 2.614111
v -0.124230 -0.521443 2.614111
v -0.066637 -0.522596 2.614111
v 0.084892 -0.522980 2.614111
v 1.920245 0.255913 2.614111
v 0.142542 -0.522596 2.614111
v 0.200136 -0.521443 2.614111
v 0.257615 -0.519523 2.614111
v 0.314923 -0.516838 2.614111
v 0.372005 -0.513390 2.614111
v 0.428804 -0.509184 2.614111
v 0.485262 -0.504221 2.614111
v 0.541326 -0.498510 2.614111
v 0.596939 -0.492053 2.614111
v 0.652048 -0.484858 2.614111
v 0.706595 -0.476932 2.614111
v 0.760530 -0.468283 2.614111
v 0.813799 -0.458920 2.614111
v 0.866348 -0.448850 2.614111
v 0.918125 -0.438086 2.614111
v 0.969081 -0.426636 2.614111
v 1.019164 -0.414513 2.614111
v 1.068323 -0.401728 2.614111
v 1.116512 -0.388294 2.614111
v 1.163686 -0.374225 2.614111
v 1.209794 -0.359533 2.614111
v 1.254789 -0.344234 2.614111
v 1.298633 -0.328343 2.614111
v 1.341278 -0.311875 2.614111
v 1.382682 -0.294848 2.614111
v 1.422806 -0.277276 2.614111
v 1.458812 -0.260569 2.614111
v 1.423518 -0.278106 2.614111
v 1.535105 -0.221476 2.614111
v 1.569725 -0.201909 2.614111
v 1.602878 -0.181890 2.614111
v 1.634531 -0.161439 2.614111
v 1.664657 -0.140576 2.614111
v 1.693225 -0.119322 2.614111
v 1.720203 -0.097697 2.614111
v 1.745568 -0.075724 2.614111
v 1.769296 -0.053423 2.614111
v 1.791360 -0.030817 2.614111
v 1.811741 -0.007928 2.614111
v 1.830416 0.015222 2.614111
v 1.847371 0.038609 2.614111
v 1.862584 0.062210 2.614111
v 1.876043 0.086002 2.614111
v 1.887736 0.109963 2.614111
v 1.897648 0.134067 2.614111
v 1.905772 0.158292 2.614111
v 1.912099 0.182612 2.614111
v 1.916623 0.207006 2.614111
v 1.919340 0.231447 2.614111
v 1.920245 0.473721 -0.631821
v 1.920245 0.473721 2.614111
v -1.844341 0.477020 -0.631821
v -1.844341 0.477020 2.614111
vt 0.253117 0.603944
vt 0.246883 0.676002
vt 0.246883 0.603944
vt 0.256946 0.603944
vt 0.279587 0.694788
vt 0.276368 0.695417
vt 0.466248 0.073998
vt 0.469303 0.146056
vt 0.466248 0.146056
vt 0.243054 0.676002
vt 0.239230 0.603944
vt 0.243054 0.603944
vt 0.239230 0.676002
vt 0.235413 0.603944
vt 0.235413 0.676002
vt 0.231607 0.603944
vt 0.231607 0.676002
vt 0.227816 0.603944
vt 0.227816 0.676002
vt 0.224044 0.603944
vt 0.224044 0.676002
vt 0.220295 0.603944
vt 0.220295 0.676002
vt 0.216572 0.603944
vt 0.216572 0.676002
vt 0.212879 0.603944
vt 0.212879 0.676002
vt 0.209219 0.603944
vt 0.209219 0.676002
vt 0.205596 0.603944
vt 0.205596 0.676002
vt 0.202015 0.603944
vt 0.202015 0.676002
vt 0.198477 0.603944
vt 0.198477 0.676002
vt 0.194988 0.603944
vt 0.194988 0.676002
vt 0.191549 0.603944
vt 0.188165 0.676002
vt 0.188165 0.603944
vt 0.184839 0.603944
vt 0.184839 0.676002
vt 0.181575 0.603944
vt 0.181575 0.676002
vt 0.178375 0.603944
vt 0.178375 0.676002
vt 0.175242 0.603944
vt 0.175242 0.676002
vt 0.172180 0.603944
vt 0.172180 0.676002
vt 0.169192 0.603944
vt 0.169192 0.676002
vt 0.166280 0.603944
vt 0.166280 0.676002
vt 0.163448 0.603944
vt 0.163448 0.676002
vt 0.125000 0.603944
vt 0.375000 0.073998
vt 0.405713 0.146056
vt 0.375000 0.146056
vt 0.405713 0.073998
vt 0.407975 0.146056
vt 0.407975 0.073998
vt 0.410301 0.146056
vt 0.410301 0.073998
vt 0.412688 0.146056
vt 0.412688 0.073998
vt 0.415134 0.146056
vt 0.415134 0.073998
vt 0.417636 0.146056
vt 0.417636 0.073998
vt 0.420193 0.146056
vt 0.420193 0.073998
vt 0.422800 0.146056
vt 0.422800 0.073998
vt 0.425457 0.146056
vt 0.425457 0.073998
vt 0.428160 0.146056
vt 0.428160 0.073998
vt 0.430907 0.146056
vt 0.430907 0.073998
vt 0.433695 0.146056
vt 0.433695 0.073998
vt 0.436520 0.146056
vt 0.436520 0.073998
vt 0.439382 0.146056
vt 0.439382 0.073998
vt 0.442275 0.146056
vt 0.442275 0.073998
vt 0.445199 0.146056
vt 0.445199 0.073998
vt 0.448149 0.146056
vt 0.448149 0.073998
vt 0.451123 0.146056
vt 0.451123 0.073998
vt 0.454118 0.146056
vt 0.454118 0.073998
vt 0.457131 0.146056
vt 0.457131 0.073998
vt 0.460159 0.146056
vt 0.460159 0.073998
vt 0.463199 0.146056
vt 0.463199 0.073998
vt 0.253117 0.676002
vt 0.469303 0.603944
vt 0.472362 0.676002
vt 0.469303 0.676012
vt 0.260770 0.603944
vt 0.282816 0.694160
vt 0.264587 0.603944
vt 0.286051 0.693534
vt 0.268393 0.603944
vt 0.289290 0.692911
vt 0.272184 0.603944
vt 0.292528 0.692290
vt 0.275956 0.603944
vt 0.295762 0.691674
vt 0.279705 0.603944
vt 0.298991 0.691062
vt 0.283428 0.603944
vt 0.302209 0.690454
vt 0.287121 0.603944
vt 0.305415 0.689852
vt 0.290781 0.603944
vt 0.308604 0.689257
vt 0.294404 0.603944
vt 0.311775 0.688668
vt 0.297985 0.603944
vt 0.314923 0.688086
vt 0.301523 0.603944
vt 0.318046 0.687512
vt 0.308451 0.603944
vt 0.321140 0.686947
vt 0.324203 0.686390
vt 0.311835 0.603944
vt 0.327231 0.685843
vt 0.315161 0.603944
vt 0.330222 0.685306
vt 0.318425 0.603944
vt 0.333172 0.684780
vt 0.321625 0.603944
vt 0.336079 0.684265
vt 0.327820 0.603944
vt 0.338939 0.683761
vt 0.341750 0.683270
vt 0.330808 0.603944
vt 0.344510 0.682791
vt 0.333720 0.603944
vt 0.347214 0.682325
vt 0.336552 0.603944
vt 0.379690 0.681873
vt 0.375000 0.603944
vt 0.405713 0.681435
vt 0.407975 0.681011
vt 0.410301 0.603944
vt 0.410301 0.680602
vt 0.412688 0.680208
vt 0.412688 0.603944
vt 0.415134 0.679830
vt 0.415134 0.603944
vt 0.417636 0.679468
vt 0.417636 0.603944
vt 0.420193 0.679123
vt 0.420193 0.603944
vt 0.422800 0.678794
vt 0.422800 0.603944
vt 0.425457 0.678482
vt 0.425457 0.603944
vt 0.428160 0.678187
vt 0.428160 0.603944
vt 0.430907 0.677910
vt 0.430907 0.603944
vt 0.433695 0.677651
vt 0.433695 0.603944
vt 0.436520 0.677410
vt 0.436520 0.603944
vt 0.439382 0.677187
vt 0.439382 0.603944
vt 0.442275 0.676983
vt 0.442275 0.603944
vt 0.445199 0.676798
vt 0.445199 0.603944
vt 0.448149 0.676632
vt 0.448149 0.603944
vt 0.451123 0.676485
vt 0.451123 0.603944
vt 0.454118 0.676357
vt 0.454118 0.603944
vt 0.457131 0.676249
vt 0.457131 0.603944
vt 0.460159 0.676160
vt 0.460159 0.603944
vt 0.463199 0.676091
vt 0.463199 0.603944
vt 0.466248 0.676042
vt 0.466248 0.603944
vt 0.469303 0.073998
vt 0.472362 0.146056
vt 0.499588 0.603944
vt 0.472362 0.603944
vt 0.500000 0.073998
vt 0.472362 0.073998
vt 0.191549 0.676002
vt 0.125000 0.676002
vt 0.305012 0.603944
vt 0.324758 0.603944
vt 0.405713 0.603944
vt 0.407975 0.603944
vt 0.499588 0.676002
vt 0.500000 0.146056
vn 0.0000 -1.0000 0.0000
vn 0.0200 -0.9998 0.0000
vn -0.9939 -0.1104 0.0000
vn -0.0200 -0.9998 0.0000
vn -0.0334 -0.9994 0.0000
vn -0.0468 -0.9989 0.0000
vn -0.0603 -0.9982 0.0000
vn -0.0739 -0.9973 0.0000
vn -0.0876 -0.9962 0.0000
vn -0.1014 -0.9949 0.0000
vn -0.1153 -0.9933 0.0000
vn -0.1295 -0.9916 0.0000
vn -0.1438 -0.9896 0.0000
vn -0.1583 -0.9874 0.0000
vn -0.1731 -0.9849 0.0000
vn -0.1882 -0.9821 0.0000
vn -0.2036 -0.9791 0.0000
vn -0.2192 -0.9757 0.0000
vn -0.2353 -0.9719 0.0000
vn -0.2517 -0.9678 0.0000
vn -0.2685 -0.9633 0.0000
vn -0.2858 -0.9583 0.0000
vn -0.3036 -0.9528 0.0000
vn -0.3219 -0.9468 0.0000
vn -0.3408 -0.9401 0.0000
vn -0.3602 -0.9329 0.0000
vn -0.3803 -0.9248 0.0000
vn -0.4011 -0.9160 0.0000
vn -0.4227 -0.9063 0.0000
vn -0.4450 -0.8955 0.0000
vn -0.4681 -0.8837 0.0000
vn -0.4921 -0.8706 0.0000
vn -0.5169 -0.8560 0.0000
vn -0.5427 -0.8399 0.0000
vn -0.5693 -0.8221 0.0000
vn -0.5969 -0.8023 0.0000
vn -0.6254 -0.7803 0.0000
vn -0.6548 -0.7558 0.0000
vn -0.6849 -0.7287 0.0000
vn -0.7156 -0.6985 0.0000
vn -0.7469 -0.6650 0.0000
vn -0.7783 -0.6279 -0.0000
vn -0.8096 -0.5869 0.0000
vn -0.8405 -0.5418 0.0000
vn -0.8704 -0.4924 0.0000
vn -0.8987 -0.4385 0.0000
vn -0.9248 -0.3804 0.0000
vn -0.9481 -0.3180 0.0000
vn -0.9678 -0.2518 0.0000
vn -0.9832 -0.1823 0.0000
vn 0.0067 -1.0000 0.0000
vn 0.9993 -0.0370 0.0000
vn 0.0334 -0.9994 0.0000
vn 0.0468 -0.9989 0.0000
vn 0.0603 -0.9982 0.0000
vn 0.0739 -0.9973 0.0000
vn 0.0876 -0.9962 0.0000
vn 0.1014 -0.9949 0.0000
vn 0.1153 -0.9933 0.0000
vn 0.1295 -0.9916 0.0000
vn 0.1438 -0.9896 0.0000
vn 0.1583 -0.9874 0.0000
vn 0.1731 -0.9849 0.0000
vn 0.1882 -0.9821 0.0000
vn 0.2036 -0.9791 0.0000
vn 0.2192 -0.9757 0.0000
vn 0.2353 -0.9719 0.0000
vn 0.2517 -0.9678 0.0000
vn 0.2685 -0.9633 0.0000
vn 0.2858 -0.9583 0.0000
vn 0.3036 -0.9528 -0.0000
vn 0.3219 -0.9468 -0.0000
vn 0.3408 -0.9402 0.0000
vn 0.3602 -0.9329 0.0000
vn 0.3804 -0.9248 0.0000
vn 0.4012 -0.9160 -0.0000
vn -0.4450 0.8955 0.0000
vn 0.4526 -0.8917 -0.0000
vn 0.4920 -0.8706 0.0000
vn 0.5169 -0.8560 0.0000
vn 0.5427 -0.8399 0.0000
vn 0.5693 -0.8221 0.0000
vn 0.5969 -0.8023 0.0000
vn 0.6254 -0.7803 -0.0000
vn 0.6548 -0.7558 0.0000
vn 0.6849 -0.7287 0.0000
vn 0.7156 -0.6985 0.0000
vn 0.7469 -0.6650 0.0000
vn 0.7783 -0.6279 0.0000
vn 0.8096 -0.5869 0.0000
vn 0.8405 -0.5418 0.0000
vn 0.8704 -0.4924 0.0000
vn 0.8987 -0.4386 0.0000
vn 0.9249 -0.3803 0.0000
vn 0.9481 -0.3179 -0.0000
vn 0.9678 -0.2518 -0.0000
vn 0.9832 -0.1823 0.0000
vn 0.9939 -0.1105 0.0000
vn -0.0067 -1.0000 0.0000
vn -0.9993 -0.0370 0.0000
vn 1.0000 0.0000 0.0000
vn -1.0000 0.0000 0.0000
vn -0.4012 -0.9160 0.0000
vn -0.7468 -0.6650 -0.0000
vn -0.9481 -0.3179 0.0000
vn -0.9832 -0.1824 0.0000
vn 0.2035 -0.9791 -0.0000
vn 0.9248 -0.3803 -0.0000
vn 0.9832 -0.1824 0.0000
s off
f 52/1/1 104/2/1 1/3/1
f 54/4/2 157/5/2 156/6/2
f 106/7/3 28/8/3 29/9/3
f 153/10/4 4/11/4 3/12/4
f 152/13/5 5/14/5 4/11/5
f 151/15/6 6/16/6 5/14/6
f 150/17/7 7/18/7 6/16/7
f 149/19/8 8/20/8 7/18/8
f 148/21/9 9/22/9 8/20/9
f 147/23/10 10/24/10 9/22/10
f 146/25/11 11/26/11 10/24/11
f 145/27/12 12/28/12 11/26/12
f 144/29/13 13/30/13 12/28/13
f 143/31/14 14/32/14 13/30/14
f 142/33/15 15/34/15 14/32/15
f 141/35/16 16/36/16 15/34/16
f 140/37/17 17/38/17 16/36/17
f 17/38/18 138/39/18 18/40/18
f 138/39/19 19/41/19 18/40/19
f 137/42/20 20/43/20 19/41/20
f 136/44/21 21/45/21 20/43/21
f 135/46/22 22/47/22 21/45/22
f 134/48/23 23/49/23 22/47/23
f 133/50/24 24/51/24 23/49/24
f 132/52/25 25/53/25 24/51/25
f 131/54/26 26/55/26 25/53/26
f 130/56/27 27/57/27 26/55/27
f 129/58/28 51/59/28 27/60/28
f 128/61/29 50/62/29 51/59/29
f 127/63/30 49/64/30 50/62/30
f 126/65/31 48/66/31 49/64/31
f 125/67/32 47/68/32 48/66/32
f 124/69/33 46/70/33 47/68/33
f 123/71/34 45/72/34 46/70/34
f 122/73/35 44/74/35 45/72/35
f 121/75/36 43/76/36 44/74/36
f 120/77/37 42/78/37 43/76/37
f 119/79/38 41/80/38 42/78/38
f 118/81/39 40/82/39 41/80/39
f 117/83/40 39/84/40 40/82/40
f 116/85/41 38/86/41 39/84/41
f 115/87/42 37/88/42 38/86/42
f 114/89/43 36/90/43 37/88/43
f 113/91/44 35/92/44 36/90/44
f 112/93/45 34/94/45 35/92/45
f 111/95/46 33/96/46 34/94/46
f 110/97/47 32/98/47 33/96/47
f 109/99/48 31/100/48 32/98/48
f 108/101/49 30/102/49 31/100/49
f 107/103/50 29/9/50 30/102/50
f 52/1/51 156/6/51 154/104/51
f 78/105/52 155/106/52 204/107/52
f 55/108/53 158/109/53 157/5/53
f 56/110/54 159/111/54 158/109/54
f 57/112/55 160/113/55 159/111/55
f 58/114/56 161/115/56 160/113/56
f 59/116/57 162/117/57 161/115/57
f 60/118/58 163/119/58 162/117/58
f 61/120/59 164/121/59 163/119/59
f 62/122/60 165/123/60 164/121/60
f 63/124/61 166/125/61 165/123/61
f 64/126/62 167/127/62 166/125/62
f 65/128/63 168/129/63 167/127/63
f 66/130/64 169/131/64 168/129/64
f 169/131/65 68/132/65 170/133/65
f 68/132/66 171/134/66 170/133/66
f 69/135/67 172/136/67 171/134/67
f 70/137/68 173/138/68 172/136/68
f 71/139/69 174/140/69 173/138/69
f 72/141/70 175/142/70 174/140/70
f 175/142/71 74/143/71 176/144/71
f 74/143/72 177/145/72 176/144/72
f 75/146/73 178/147/73 177/145/73
f 76/148/74 179/149/74 178/147/74
f 77/150/75 180/151/75 179/149/75
f 102/152/76 181/153/76 180/151/76
f 182/154/77 99/155/77 183/156/77
f 99/155/78 184/157/78 183/156/78
f 98/158/79 185/159/79 184/157/79
f 97/160/80 186/161/80 185/159/80
f 96/162/81 187/163/81 186/161/81
f 95/164/82 188/165/82 187/163/82
f 94/166/83 189/167/83 188/165/83
f 93/168/84 190/169/84 189/167/84
f 92/170/85 191/171/85 190/169/85
f 91/172/86 192/173/86 191/171/86
f 90/174/87 193/175/87 192/173/87
f 89/176/88 194/177/88 193/175/88
f 88/178/89 195/179/89 194/177/89
f 87/180/90 196/181/90 195/179/90
f 86/182/91 197/183/91 196/181/91
f 85/184/92 198/185/92 197/183/92
f 84/186/93 199/187/93 198/185/93
f 83/188/94 200/189/94 199/187/94
f 82/190/95 201/191/95 200/189/95
f 81/192/96 202/193/96 201/191/96
f 80/194/97 203/195/97 202/193/97
f 79/196/98 204/107/98 203/195/98
f 1/3/99 153/10/99 3/12/99
f 105/197/100 2/198/100 28/8/100
f 205/199/101 155/106/101 53/200/101
f 208/201/102 2/198/102 103/202/102
f 52/1/1 154/104/1 104/2/1
f 54/4/2 55/108/2 157/5/2
f 106/7/3 105/197/3 28/8/3
f 153/10/4 152/13/4 4/11/4
f 152/13/5 151/15/5 5/14/5
f 151/15/6 150/17/6 6/16/6
f 150/17/7 149/19/7 7/18/7
f 149/19/8 148/21/8 8/20/8
f 148/21/9 147/23/9 9/22/9
f 147/23/10 146/25/10 10/24/10
f 146/25/11 145/27/11 11/26/11
f 145/27/12 144/29/12 12/28/12
f 144/29/13 143/31/13 13/30/13
f 143/31/14 142/33/14 14/32/14
f 142/33/15 141/35/15 15/34/15
f 141/35/16 140/37/16 16/36/16
f 140/37/17 139/203/17 17/38/17
f 17/38/18 139/203/18 138/39/18
f 138/39/19 137/42/19 19/41/19
f 137/42/20 136/44/20 20/43/20
f 136/44/21 135/46/21 21/45/21
f 135/46/22 134/48/22 22/47/22
f 134/48/23 133/50/23 23/49/23
f 133/50/24 132/52/24 24/51/24
f 132/52/25 131/54/25 25/53/25
f 131/54/26 130/56/26 26/55/26
f 130/56/27 129/204/27 27/57/27
f 129/58/103 128/61/103 51/59/103
f 128/61/29 127/63/29 50/62/29
f 127/63/30 126/65/30 49/64/30
f 126/65/31 125/67/31 48/66/31
f 125/67/32 124/69/32 47/68/32
f 124/69/33 123/71/33 46/70/33
f 123/71/34 122/73/34 45/72/34
f 122/73/35 121/75/35 44/74/35
f 121/75/36 120/77/36 43/76/36
f 120/77/37 119/79/37 42/78/37
f 119/79/38 118/81/38 41/80/38
f 118/81/39 117/83/39 40/82/39
f 117/83/40 116/85/40 39/84/40
f 116/85/104 115/87/104 38/86/104
f 115/87/42 114/89/42 37/88/42
f 114/89/43 113/91/43 36/90/43
f 113/91/44 112/93/44 35/92/44
f 112/93/45 111/95/45 34/94/45
f 111/95/46 110/97/46 33/96/46
f 110/97/47 109/99/47 32/98/47
f 109/99/105 108/101/105 31/100/105
f 108/101/49 107/103/49 30/102/49
f 107/103/106 106/7/106 29/9/106
f 52/1/51 54/4/51 156/6/51
f 78/105/52 53/200/52 155/106/52
f 55/108/53 56/110/53 158/109/53
f 56/110/54 57/112/54 159/111/54
f 57/112/55 58/114/55 160/113/55
f 58/114/56 59/116/56 161/115/56
f 59/116/57 60/118/57 162/117/57
f 60/118/58 61/120/58 163/119/58
f 61/120/59 62/122/59 164/121/59
f 62/122/60 63/124/60 165/123/60
f 63/124/61 64/126/61 166/125/61
f 64/126/62 65/128/62 167/127/62
f 65/128/63 66/130/63 168/129/63
f 66/130/64 67/205/64 169/131/64
f 169/131/107 67/205/107 68/132/107
f 68/132/66 69/135/66 171/134/66
f 69/135/67 70/137/67 172/136/67
f 70/137/68 71/139/68 173/138/68
f 71/139/69 72/141/69 174/140/69
f 72/141/70 73/206/70 175/142/70
f 175/142/71 73/206/71 74/143/71
f 74/143/72 75/146/72 177/145/72
f 75/146/73 76/148/73 178/147/73
f 76/148/74 77/150/74 179/149/74
f 77/150/75 102/152/75 180/151/75
f 102/152/76 101/207/76 181/153/76
f 182/154/77 100/208/77 99/155/77
f 99/155/78 98/158/78 184/157/78
f 98/158/79 97/160/79 185/159/79
f 97/160/80 96/162/80 186/161/80
f 96/162/81 95/164/81 187/163/81
f 95/164/82 94/166/82 188/165/82
f 94/166/83 93/168/83 189/167/83
f 93/168/84 92/170/84 190/169/84
f 92/170/85 91/172/85 191/171/85
f 91/172/86 90/174/86 192/173/86
f 90/174/87 89/176/87 193/175/87
f 89/176/88 88/178/88 194/177/88
f 88/178/89 87/180/89 195/179/89
f 87/180/90 86/182/90 196/181/90
f 86/182/91 85/184/91 197/183/91
f 85/184/92 84/186/92 198/185/92
f 84/186/93 83/188/93 199/187/93
f 83/188/108 82/190/108 200/189/108
f 82/190/95 81/192/95 201/191/95
f 81/192/96 80/194/96 202/193/96
f 80/194/109 79/196/109 203/195/109
f 79/196/98 78/105/98 204/107/98
f 1/3/99 104/2/99 153/10/99
f 105/197/100 103/202/100 2/198/100
f 205/199/101 206/209/101 155/106/101
f 208/201/102 207/210/102 2/198/102
